<svg width="275" height="38" viewBox="0 0 275 38" fill="none" xmlns="http://www.w3.org/2000/svg">
<path d="M10.8 1.03999C12.1333 1.03999 13.3733 1.29332 14.52 1.79999C15.6933 2.27999 16.7067 2.95999 17.56 3.83999C18.4133 4.69332 19.0933 5.69332 19.6 6.83999C20.1067 7.98665 20.36 9.22666 20.36 10.56V19.48C20.36 20.7867 20.12 22.0267 19.64 23.2C19.1867 24.3467 18.5467 25.3467 17.72 26.2C16.92 27.0533 15.96 27.7333 14.84 28.24C13.72 28.7467 12.5067 29 11.2 29H0V1.03999H10.8ZM16.6 10.56C16.6 8.82666 16.1067 7.42666 15.12 6.35999C14.16 5.29332 12.7867 4.75999 11 4.75999H3.76V25.24H10.8C12.6133 25.24 14.0267 24.72 15.04 23.68C16.08 22.64 16.6 21.24 16.6 19.48V10.56Z" fill="white"/>
<path d="M27.3147 0.999988V4.75999H23.5547V0.999988H27.3147ZM23.5547 8.99999H27.3147V29H23.5547V8.99999Z" fill="white"/>
<path d="M49.4872 37.12H32.6072V33.32H45.7272V26.8H45.6472C45.2472 27.4133 44.5005 27.92 43.4072 28.32C42.3405 28.72 41.1672 28.92 39.8872 28.92C38.8205 28.92 37.7272 28.8133 36.6072 28.6C35.5139 28.3867 34.5139 27.9333 33.6072 27.24C32.7005 26.5467 31.9672 25.5467 31.4072 24.24C30.8472 22.9067 30.5672 21.1467 30.5672 18.96C30.5672 16.7467 30.8472 14.9867 31.4072 13.68C31.9939 12.3733 32.7272 11.3733 33.6072 10.68C34.5139 9.98665 35.5139 9.54665 36.6072 9.35999C37.7272 9.14666 38.8205 9.03999 39.8872 9.03999C41.2472 9.03999 42.4605 9.23999 43.5272 9.63999C44.5939 10.04 45.3405 10.5733 45.7672 11.24H45.8872V9.03999H49.4872V37.12ZM40.0472 25.12C41.0872 25.12 41.9672 25.04 42.6872 24.88C43.4072 24.6933 43.9939 24.3867 44.4472 23.96C44.9272 23.5067 45.2739 22.88 45.4872 22.08C45.7005 21.28 45.8072 20.2667 45.8072 19.04C45.8072 17.6533 45.6739 16.5467 45.4072 15.72C45.1672 14.8933 44.8072 14.2667 44.3272 13.84C43.8472 13.3867 43.2605 13.0933 42.5672 12.96C41.9005 12.8267 41.1405 12.76 40.2872 12.76C39.4339 12.76 38.6605 12.8133 37.9672 12.92C37.3005 13.0267 36.7272 13.2933 36.2472 13.72C35.7672 14.12 35.3939 14.7467 35.1272 15.6C34.8872 16.4267 34.7672 17.5733 34.7672 19.04C34.7672 20.3467 34.8739 21.4 35.0872 22.2C35.3005 22.9733 35.6205 23.5867 36.0472 24.04C36.4739 24.4667 37.0205 24.76 37.6872 24.92C38.3539 25.0533 39.1405 25.12 40.0472 25.12Z" fill="white"/>
<path d="M57.2366 0.999988V4.75999H53.4766V0.999988H57.2366ZM53.4766 8.99999H57.2366V29H53.4766V8.99999Z" fill="white"/>
<path d="M67.6091 25.24H75.8091V29H63.8491V12.92H60.4891V9.15999H63.8491V0.999988H67.6091V9.15999H74.2891V12.92H67.6091V25.24Z" fill="white"/>
<path d="M90.0469 16.36V12.96H79.2469V9.15999H93.8069V25.24H96.4869V29H90.5669L90.1669 26.88H90.0469C89.7269 27.4667 89.0869 27.9733 88.1269 28.4C87.1669 28.8267 85.9669 29.04 84.5269 29.04C82.1802 29.04 80.3802 28.4267 79.1269 27.2C77.8735 25.9467 77.2469 24.36 77.2469 22.44C77.2469 20.44 77.9935 18.9333 79.4869 17.92C80.9802 16.88 82.9802 16.36 85.4869 16.36H90.0469ZM90.0469 19.76H86.0469C85.1935 19.76 84.4602 19.8533 83.8469 20.04C83.2335 20.2267 82.7269 20.4667 82.3269 20.76C81.9535 21.0267 81.6735 21.3467 81.4869 21.72C81.3269 22.0667 81.2469 22.4133 81.2469 22.76C81.2469 23.4533 81.4602 24.0267 81.8869 24.48C82.3402 24.9333 82.8469 25.24 83.4069 25.4C83.9669 25.56 84.5135 25.64 85.0469 25.64C85.2335 25.64 85.5669 25.6267 86.0469 25.6C86.5535 25.5467 87.1269 25.3733 87.7669 25.08C88.4069 24.76 88.9402 24.32 89.3669 23.76C89.8202 23.2 90.0469 22.5333 90.0469 21.76V19.76Z" fill="white"/>
<path d="M99.6875 0.999988H103.448V29H99.6875V0.999988Z" fill="white"/>
<path d="M128.267 0.799988C129.707 0.799988 131.027 1.01332 132.227 1.43999C133.427 1.86666 134.467 2.49332 135.347 3.31999C136.254 4.11999 136.974 5.11999 137.507 6.31999C138.041 7.49332 138.347 8.83999 138.427 10.36H134.667C134.507 8.49332 133.894 7.06666 132.827 6.07999C131.787 5.09332 130.227 4.59999 128.147 4.59999C127.161 4.59999 126.307 4.73332 125.587 4.99999C124.867 5.23999 124.254 5.58666 123.747 6.03999C123.267 6.46666 122.881 6.97332 122.587 7.55999C122.294 8.14666 122.081 8.78666 121.947 9.47999V9.51999C121.894 9.83999 121.841 10.5333 121.787 11.6C121.761 12.6667 121.747 13.84 121.747 15.12C121.747 16.3733 121.761 17.5733 121.787 18.72C121.841 19.8667 121.921 20.6667 122.027 21.12C122.321 22.48 122.934 23.5467 123.867 24.32C124.801 25.0933 126.254 25.48 128.227 25.48C129.374 25.48 130.347 25.3467 131.147 25.08C131.947 24.8133 132.601 24.4133 133.107 23.88C133.614 23.3467 133.987 22.6933 134.227 21.92C134.467 21.12 134.614 20.2 134.667 19.16H138.427C138.427 20.68 138.147 22.0667 137.587 23.32C137.054 24.5467 136.321 25.6133 135.387 26.52C134.454 27.4 133.374 28.08 132.147 28.56C130.921 29.04 129.614 29.28 128.227 29.28C126.841 29.28 125.521 29.04 124.267 28.56C123.041 28.0533 121.961 27.3467 121.027 26.44C120.121 25.5067 119.401 24.4 118.867 23.12C118.334 21.84 118.067 20.4267 118.067 18.88V11.2C118.067 9.54665 118.321 8.07999 118.827 6.79999C119.334 5.49332 120.027 4.39999 120.907 3.51999C121.814 2.63999 122.894 1.97332 124.147 1.51999C125.401 1.03999 126.774 0.799988 128.267 0.799988Z" fill="white"/>
<path d="M154.121 9.15999H157.881V29H141.641V9.15999H145.401V25.24H154.121V9.15999Z" fill="white"/>
<path d="M174.355 9.15999V12.92H165.635V29H161.875V9.15999H174.355Z" fill="white"/>
<path d="M190.253 9.15999V12.92H181.533V29H177.773V9.15999H190.253Z" fill="white"/>
<path d="M200.28 9.27999C202.013 9.27999 203.48 9.57332 204.68 10.16C205.906 10.7467 206.88 11.5733 207.6 12.64C208.346 13.68 208.84 14.8133 209.08 16.04C209.32 17.24 209.44 18.3733 209.44 19.44C209.44 19.9733 209.413 20.5067 209.36 21.04H194.68C194.68 21.9733 194.826 22.7333 195.12 23.32C195.413 23.9067 195.813 24.36 196.32 24.68C196.826 25 197.4 25.2267 198.04 25.36C198.68 25.4667 199.36 25.52 200.08 25.52C200.586 25.52 201.106 25.5067 201.64 25.48C202.173 25.4267 202.666 25.3333 203.12 25.2C203.573 25.04 203.973 24.8133 204.32 24.52C204.693 24.2267 204.946 23.8267 205.08 23.32H208.92C208.653 24.3867 208.24 25.2933 207.68 26.04C207.146 26.76 206.493 27.3467 205.72 27.8C204.973 28.2533 204.12 28.5867 203.16 28.8C202.226 29.0133 201.226 29.12 200.16 29.12C196.933 29.12 194.573 28.28 193.08 26.6C191.613 24.92 190.88 22.4533 190.88 19.2C190.88 17.76 191.066 16.44 191.44 15.24C191.84 14.0133 192.426 12.96 193.2 12.08C193.973 11.2 194.946 10.52 196.12 10.04C197.293 9.53332 198.68 9.27999 200.28 9.27999ZM205.64 17.52C205.613 17.2 205.546 16.7733 205.44 16.24C205.333 15.68 205.093 15.1467 204.72 14.64C204.373 14.1067 203.853 13.6533 203.16 13.28C202.466 12.9067 201.52 12.72 200.32 12.72C199.226 12.72 198.32 12.88 197.6 13.2C196.88 13.52 196.293 13.92 195.84 14.4C195.413 14.88 195.106 15.4 194.92 15.96C194.76 16.52 194.68 17.04 194.68 17.52H205.64Z" fill="white"/>
<path d="M212.656 29V9.15999H216.576V11.4H216.656C217.056 10.7867 217.763 10.2533 218.776 9.79999C219.816 9.34666 220.976 9.11999 222.256 9.11999C223.35 9.11999 224.443 9.22666 225.536 9.43999C226.63 9.65332 227.63 10.1067 228.536 10.8C229.443 11.4933 230.176 12.4933 230.736 13.8C231.296 15.1067 231.576 16.8667 231.576 19.08V29H227.576V19.36C227.576 18.0533 227.47 16.9867 227.256 16.16C227.043 15.3067 226.71 14.64 226.256 14.16C225.83 13.68 225.27 13.3467 224.576 13.16C223.91 12.9733 223.123 12.88 222.216 12.88C221.283 12.88 220.456 12.9733 219.736 13.16C219.016 13.3467 218.416 13.68 217.936 14.16C217.456 14.64 217.083 15.28 216.816 16.08C216.576 16.8533 216.456 17.84 216.456 19.04V29H212.656Z" fill="white"/>
<path d="M243.635 12.96C242.675 12.96 241.849 13.04 241.155 13.2C240.462 13.3333 239.889 13.6133 239.435 14.04C239.009 14.4667 238.689 15.08 238.475 15.88C238.262 16.68 238.155 17.72 238.155 19C238.155 20.4667 238.275 21.6267 238.515 22.48C238.782 23.3333 239.142 23.9733 239.595 24.4C240.075 24.8 240.649 25.0533 241.315 25.16C242.009 25.2667 242.782 25.32 243.635 25.32C244.302 25.32 244.915 25.2933 245.475 25.24C246.035 25.1867 246.529 25.0667 246.955 24.88C247.409 24.6667 247.782 24.36 248.075 23.96C248.395 23.56 248.649 23.0133 248.835 22.32H252.675C252.409 23.7867 251.955 24.9733 251.315 25.88C250.702 26.76 249.982 27.44 249.155 27.92C248.329 28.4 247.435 28.72 246.475 28.88C245.515 29.0133 244.569 29.08 243.635 29.08C242.569 29.08 241.489 28.9733 240.395 28.76C239.302 28.5467 238.302 28.1067 237.395 27.44C236.515 26.7467 235.795 25.7467 235.235 24.44C234.675 23.1067 234.395 21.3467 234.395 19.16C234.395 16.9467 234.675 15.1867 235.235 13.88C235.795 12.5733 236.515 11.5733 237.395 10.88C238.302 10.1867 239.302 9.73332 240.395 9.51999C241.489 9.30666 242.569 9.19999 243.635 9.19999C244.569 9.19999 245.515 9.27999 246.475 9.43999C247.435 9.59999 248.329 9.91999 249.155 10.4C250.009 10.88 250.742 11.5733 251.355 12.48C251.969 13.3867 252.409 14.5867 252.675 16.08H248.875C248.555 14.7733 247.969 13.9333 247.115 13.56C246.289 13.16 245.129 12.96 243.635 12.96Z" fill="white"/>
<path d="M259.459 9.07999V18.72C259.459 20.0267 259.566 21.1067 259.779 21.96C259.993 22.7867 260.313 23.44 260.739 23.92C261.193 24.4 261.753 24.7333 262.419 24.92C263.113 25.1067 263.913 25.2 264.819 25.2C265.753 25.2 266.579 25.1067 267.299 24.92C268.019 24.7333 268.619 24.4 269.099 23.92C269.579 23.44 269.939 22.8133 270.179 22.04C270.446 21.24 270.579 20.24 270.579 19.04V9.07999H274.379V37.12H257.419V33.32H270.459V26.68H270.379C269.979 27.2933 269.259 27.8267 268.219 28.28C267.206 28.7333 266.059 28.96 264.779 28.96C263.713 28.96 262.619 28.8533 261.499 28.64C260.406 28.4267 259.406 27.9733 258.499 27.28C257.593 26.5867 256.859 25.5867 256.299 24.28C255.739 22.9467 255.459 21.1867 255.459 19V9.07999H259.459Z" fill="white"/>
</svg>
